<svg xmlns="http://www.w3.org/2000/svg" viewBox="0 0 28.314 28.323" width="28.314" height="28.323">
  <path d="M27.728 20.384l-4.242-4.242a2.004 2.004 0 00-2.826 0l-2.828 2.828-8.485-8.485 2.828-2.828a2.004 2.004 0 000-2.83L7.929.585A2.004 2.004 0 005.101.587L.858 4.83c-.129.128-1.247 1.338-.716 3.997.626 3.129 3.246 7.019 7.787 11.56 6.499 6.499 10.598 7.937 12.953 7.937 1.63 0 2.426-.689 2.604-.867l4.242-4.242a2.003 2.003 0 000-2.83zM22.072 26.042c-.028.028-3.409 2.249-12.729-7.07-9.98-9.98-7.526-13.189-7.53-13.188L6.515 2l4.243 4.244-3.535 3.535a1 1 0 000 1.414l9.899 9.899a1 1 0 001.414 0l3.535-3.536L26.314 21.1 22.072 26.042z"/>
</svg>

